<svg width="490" height="265" viewBox="0 0 490 265" fill="none" xmlns="http://www.w3.org/2000/svg" style="opacity: 1; top: -70px; left: 0px;">
      <path d="M384.182 240.325C165.022 242.331 164.771 242.581 85.2819 39.7332C42.4028 -69.0877 1.02832 -178.41 -41.8507 -286.228C-92.0016 -411.598 -142.153 -536.968 -202.083 -689.166C-284.581 -443.943 -356.548 -230.564 -427.762 -16.934C-523.049 263.643 -571.5 304 -818.438 234.558C-825.543 232.053 -832.421 228.95 -839 225.28C-729.671 -79.368 -625.608 -387.778 -507.252 -690.42C-457.101 -817.294 -344.763 -874.463 -206.346 -875.967C-67.9293 -877.472 49.1732 -827.324 111.36 -695.936C163.267 -586.614 204.641 -472.277 249.526 -359.945C328.765 -163.867 406.749 32.2109 490 240.325H384.182Z"></path>
    </svg>