<svg width="44" height="52" viewBox="0 0 44 52" fill="none" xmlns="http://www.w3.org/2000/svg">
                    <path d="M40.31 15C39.9526 15.0029 39.598 15.0637 39.26 15.18L32.61 5.61C32.9215 5.31046 33.1703 4.95198 33.3419 4.55541C33.5136 4.15884 33.6047 3.7321 33.61 3.3C33.61 2.64732 33.4165 2.0093 33.0538 1.46662C32.6912 0.923937 32.1759 0.500968 31.5729 0.251199C30.9699 0.00142984 30.3063 -0.0639212 29.6662 0.0634101C29.0261 0.190741 28.4381 0.505036 27.9765 0.966549C27.515 1.42806 27.2007 2.01607 27.0734 2.6562C26.9461 3.29634 27.0114 3.95986 27.2612 4.56286C27.511 5.16585 27.9339 5.68124 28.4766 6.04385C29.0193 6.40646 29.6573 6.6 30.31 6.6C30.7791 6.59434 31.242 6.49222 31.67 6.3L38.26 15.75C37.8004 16.141 37.4548 16.6489 37.26 17.22L20.83 14.85C20.8045 14.205 20.5898 13.5818 20.2127 13.0579C19.8356 12.5341 19.3127 12.1327 18.7092 11.9038C18.1057 11.6749 17.4481 11.6286 16.8185 11.7707C16.1888 11.9127 15.6149 12.2369 15.1681 12.7027C14.7213 13.1686 14.4214 13.7556 14.3058 14.3906C14.1902 15.0257 14.2639 15.6807 14.5178 16.2741C14.7717 16.8676 15.1945 17.3732 15.7337 17.7281C16.2729 18.083 16.9045 18.2715 17.55 18.27L22 42.14C21.8289 42.2072 21.6648 42.2909 21.51 42.39L5.68 20.54C6.27007 19.9317 6.60005 19.1175 6.6 18.27C6.6 17.6173 6.40646 16.9793 6.04385 16.4366C5.68124 15.8939 5.16585 15.471 4.56286 15.2212C3.95986 14.9714 3.29634 14.9061 2.6562 15.0334C2.01607 15.1607 1.42806 15.475 0.966549 15.9365C0.505036 16.3981 0.190741 16.9861 0.0634101 17.6262C-0.0639212 18.2663 0.00142984 18.9299 0.251199 19.5329C0.500968 20.1359 0.923937 20.6512 1.46662 21.0139C2.0093 21.3765 2.64732 21.57 3.3 21.57C3.78913 21.5699 4.27164 21.457 4.71 21.24L20.62 43.24C20.2413 43.7219 20.0057 44.3006 19.94 44.91L10.67 45.71C10.4472 44.515 9.77744 43.4498 8.79705 42.7311C7.81665 42.0124 6.59926 41.6942 5.39258 41.8413C4.1859 41.9884 3.0806 42.5897 2.30157 43.5229C1.52253 44.456 1.12831 45.651 1.1991 46.8645C1.26989 48.0781 1.80038 49.219 2.68263 50.0553C3.56488 50.8916 4.7326 51.3603 5.94819 51.3661C7.16379 51.3719 8.33593 50.9143 9.22611 50.0865C10.1163 49.2587 10.6576 48.1228 10.74 46.91L20.03 46.11C20.1887 46.7032 20.5101 47.2402 20.9581 47.6602C21.4061 48.0802 21.9627 48.3664 22.5649 48.4865C23.1671 48.6066 23.7909 48.5557 24.3657 48.3397C24.9405 48.1237 25.4434 47.7511 25.8174 47.2641C26.1915 46.7771 26.4218 46.1952 26.4823 45.5841C26.5428 44.973 26.4311 44.3572 26.1598 43.8064C25.8884 43.2555 25.4684 42.7915 24.9471 42.467C24.4258 42.1425 23.8241 41.9703 23.21 41.97L18.73 18.05C19.1767 17.877 19.58 17.6084 19.9117 17.2628C20.2434 16.9173 20.4954 16.5033 20.65 16.05L37 18.4C37.0216 19.0447 37.2322 19.6689 37.6057 20.1948C37.9792 20.7208 38.4991 21.1253 39.1007 21.3582C39.7023 21.591 40.3591 21.6418 40.9893 21.5043C41.6196 21.3669 42.1955 21.0471 42.6455 20.5849C43.0955 20.1227 43.3997 19.5384 43.5202 18.9047C43.6407 18.2709 43.5723 17.6158 43.3234 17.0206C43.0746 16.4255 42.6562 15.9166 42.1204 15.5574C41.5846 15.1981 40.9551 15.0043 40.31 15Z" fill="black"></path>
                    <circle cx="6.5" cy="46.5" r="5.5" fill="#001AFF"></circle>
                  </svg>