<svg width="54" height="29" viewBox="0 0 54 29" fill="none" xmlns="http://www.w3.org/2000/svg">
                    <path d="M50.4089 18.3899C49.8517 18.3892 49.3036 18.5312 48.8169 18.8026C48.3302 19.0739 47.9212 19.4655 47.6289 19.9399L42.6289 17.9399C42.6978 17.628 42.7314 17.3093 42.7289 16.9899C42.7287 16.3553 42.5991 15.7274 42.348 15.1446C42.097 14.5617 41.7298 14.0361 41.2689 13.5999L46.6589 6.28993C47.1048 6.51802 47.5981 6.63792 48.0989 6.63993C48.8627 6.64501 49.6049 6.38657 50.2004 5.90818C50.7958 5.42979 51.2081 4.76071 51.3677 4.01375C51.5273 3.26679 51.4245 2.48764 51.0766 1.80767C50.7286 1.1277 50.1569 0.588493 49.4577 0.28097C48.7585 -0.0265536 47.9747 -0.0835857 47.2383 0.119489C46.502 0.322564 45.8582 0.773324 45.4155 1.39577C44.9728 2.01822 44.7583 2.77427 44.8081 3.53647C44.8579 4.29867 45.169 5.02038 45.6889 5.57993L40.2989 12.8999C39.5969 12.4923 38.8006 12.2751 37.9889 12.2699C37.7035 12.2746 37.419 12.3048 37.1389 12.3599L35.4389 7.10993C35.7894 6.80495 36.0706 6.42857 36.2638 6.00603C36.457 5.58348 36.5576 5.12453 36.5589 4.65993C36.5625 4.07785 36.4121 3.50517 36.123 2.99998C35.8338 2.4948 35.4161 2.0751 34.9124 1.78345C34.4086 1.4918 33.8367 1.33859 33.2546 1.33936C32.6725 1.34013 32.101 1.49485 31.598 1.78783C31.095 2.08081 30.6785 2.50162 30.3907 3.00757C30.1028 3.51352 29.9539 4.08659 29.9591 4.66866C29.9643 5.25073 30.1233 5.82107 30.4201 6.32183C30.7169 6.82258 31.1408 7.23593 31.6489 7.51993L25.1489 18.5999C24.7787 18.4582 24.3853 18.387 23.9889 18.3899C23.1137 18.3899 22.2743 18.7376 21.6555 19.3565C21.0366 19.9753 20.6889 20.8147 20.6889 21.6899L6.38891 23.8999C6.11345 23.1274 5.55936 22.4856 4.83528 22.1004C4.11119 21.7151 3.26932 21.6142 2.47472 21.8175C1.68011 22.0207 0.990082 22.5135 0.539898 23.1991C0.0897132 23.8847 -0.0881562 24.7137 0.0411599 25.5236C0.170476 26.3335 0.597651 27.066 1.23894 27.5773C1.88023 28.0886 2.68938 28.342 3.50777 28.2877C4.32616 28.2334 5.09476 27.8754 5.66289 27.2838C6.23102 26.6923 6.55771 25.9098 6.57891 25.0899L20.9889 22.8699C21.1662 23.3389 21.4483 23.7612 21.8138 24.1045C22.1792 24.4478 22.6183 24.7031 23.0974 24.8507C23.5766 24.9984 24.0832 25.0346 24.5784 24.9566C25.0737 24.8786 25.5446 24.6883 25.9552 24.4005C26.3657 24.1126 26.705 23.7348 26.9472 23.2957C27.1894 22.8567 27.328 22.3681 27.3525 21.8673C27.377 21.3665 27.2867 20.8667 27.0885 20.4062C26.8903 19.9456 26.5894 19.5364 26.2089 19.2099L32.8389 7.90993C33.3671 7.99767 33.9092 7.94242 34.4089 7.74993L36.0089 12.7499C35.3153 13.0584 34.7067 13.5304 34.2352 14.1254C33.7637 14.7204 33.4434 15.4207 33.3016 16.1665C33.1599 16.9123 33.2008 17.6814 33.4211 18.4079C33.6413 19.1344 34.0343 19.7967 34.5663 20.3382C35.0983 20.8798 35.7536 21.2843 36.4761 21.5174C37.1986 21.7504 37.9668 21.805 38.715 21.6764C39.4632 21.5478 40.1691 21.2399 40.7723 20.779C41.3756 20.3182 41.8582 19.718 42.1789 19.0299L47.1789 21.0299C47.1304 21.2398 47.1069 21.4546 47.1089 21.6699C47.1089 22.3226 47.3025 22.9606 47.6651 23.5033C48.0277 24.046 48.5431 24.469 49.1461 24.7187C49.7491 24.9685 50.4126 25.0338 51.0527 24.9065C51.6928 24.7792 52.2808 24.4649 52.7424 24.0034C53.2039 23.5419 53.5182 22.9539 53.6455 22.3137C53.7728 21.6736 53.7075 21.0101 53.4577 20.4071C53.2079 19.8041 52.785 19.2887 52.2423 18.9261C51.6996 18.5635 51.0616 18.3699 50.4089 18.3699V18.3899Z" fill="black"></path>
                    <circle cx="37.5" cy="17.5" r="5.5" fill="#001AFF"></circle>
                  </svg>