<svg width="44" height="38" viewBox="0 0 44 38" fill="none" xmlns="http://www.w3.org/2000/svg">
                    <g clip-path="url(#clip0)">
                    <path d="M40.3102 3.51999C39.6177 3.52317 38.9438 3.7441 38.3839 4.1515C37.8239 4.55889 37.4063 5.13211 37.1902 5.78999L29.3202 4.78999C29.2853 3.57688 28.7835 2.42404 27.9194 1.57186C27.0554 0.719669 25.8957 0.233908 24.6822 0.215854C23.4687 0.1978 22.2951 0.648847 21.406 1.47495C20.517 2.30105 19.9811 3.43845 19.9102 4.64999L6.45018 5.89999C6.22038 5.1127 5.70482 4.43962 5.00455 4.01269C4.30428 3.58577 3.46981 3.43579 2.6647 3.59216C1.8596 3.74853 1.14193 4.19996 0.652376 4.85797C0.16282 5.51597 -0.0633192 6.3331 0.0182883 7.14918C0.0998959 7.96525 0.483365 8.72142 1.09353 9.26946C1.70369 9.8175 2.49654 10.1179 3.31666 10.1117C4.13678 10.1056 4.92503 9.79331 5.5269 9.23618C6.12876 8.67904 6.50083 7.9172 6.57018 7.09999L20.0002 5.75999C20.2679 6.94051 20.9854 7.97011 22.0002 8.62999L18.4102 15.92C18.1249 15.8323 17.8286 15.7851 17.5302 15.78C16.7421 15.7831 15.9809 16.0665 15.3826 16.5794C14.7843 17.0923 14.388 17.8013 14.2645 18.5797C14.141 19.358 14.2984 20.1548 14.7085 20.8277C15.1186 21.5007 15.7547 22.0058 16.5031 22.2527C17.2514 22.4997 18.0632 22.4724 18.7933 22.1757C19.5234 21.8791 20.1241 21.3324 20.4881 20.6334C20.8521 19.9345 20.9556 19.1289 20.7801 18.3606C20.6046 17.5923 20.1616 16.9116 19.5302 16.44L23.1002 9.14999C23.5888 9.3221 24.1022 9.4133 24.6202 9.41999C25.2759 9.41406 25.9231 9.271 26.5202 8.99999L29.1202 13.32C28.7679 13.6257 28.4856 14.0036 28.2923 14.428C28.0991 14.8525 27.9994 15.3136 28.0002 15.78C28.0005 16.3128 28.1299 16.8376 28.3771 17.3095C28.6244 17.7814 28.9823 18.1865 29.4202 18.49L24.0002 30.56C23.745 30.496 23.4832 30.4624 23.2202 30.46C22.4309 30.4569 21.6666 30.7367 21.066 31.2488C20.4654 31.7609 20.0682 32.4713 19.9465 33.2512C19.8249 34.031 19.9867 34.8287 20.4027 35.4994C20.8188 36.1701 21.4614 36.6696 22.2142 36.907C22.9669 37.1445 23.7798 37.1044 24.5054 36.7938C25.231 36.4833 25.8214 35.923 26.1692 35.2145C26.5171 34.506 26.5996 33.6963 26.4016 32.9322C26.2036 32.1682 25.7383 31.5004 25.0902 31.05L30.5202 19C30.7774 19.0717 31.0431 19.1087 31.3102 19.11C32.1854 19.11 33.0248 18.7623 33.6436 18.1434C34.2625 17.5246 34.6102 16.6852 34.6102 15.81C34.6102 14.9348 34.2625 14.0954 33.6436 13.4765C33.0248 12.8577 32.1854 12.51 31.3102 12.51C30.9137 12.5155 30.5212 12.59 30.1502 12.73L27.5402 8.37999C28.323 7.75042 28.8865 6.88934 29.1502 5.91999L37.0002 6.99999C37.0334 7.64283 37.2546 8.26179 37.6361 8.7802C38.0177 9.29862 38.5429 9.69371 39.1468 9.91655C39.7507 10.1394 40.4067 10.1802 41.0336 10.0339C41.6604 9.88756 42.2306 9.56058 42.6734 9.09343C43.1163 8.62628 43.4124 8.03948 43.525 7.40571C43.6377 6.77195 43.5619 6.11906 43.3072 5.52792C43.0524 4.93678 42.6298 4.43335 42.0918 4.08C41.5538 3.72665 40.9239 3.53889 40.2802 3.53999L40.3102 3.51999Z" fill="black"></path>
                    <circle cx="24.5" cy="5.5" r="5.5" fill="#001AFF"></circle>
                    </g>
                    <defs>
                    <clipPath id="clip0">
                    <rect width="43.61" height="37.05" fill="white"></rect>
                    </clipPath>
                    </defs>
                  </svg>