<svg width="36" height="53" viewBox="0 0 36 53" fill="none" xmlns="http://www.w3.org/2000/svg">
                    <path d="M3.3 29.2396C2.64732 29.2396 2.0093 29.4332 1.46662 29.7958C0.923937 30.1584 0.500968 30.6738 0.251199 31.2768C0.00142984 31.8798 -0.0639212 32.5433 0.0634101 33.1834C0.190741 33.8235 0.505036 34.4116 0.966549 34.8731C1.42806 35.3346 2.01607 35.6489 2.6562 35.7762C3.29634 35.9035 3.95986 35.8382 4.56286 35.5884C5.16585 35.3386 5.68124 34.9157 6.04385 34.373C6.40646 33.8303 6.6 33.1923 6.6 32.5396C6.5925 32.2519 6.54882 31.9664 6.47 31.6896L18.85 25.7596C19.4589 26.7253 20.4032 27.432 21.5014 27.7439C22.5996 28.0559 23.7744 27.951 24.8 27.4496L29.59 34.9296C28.9978 35.478 28.6309 36.2272 28.5606 37.0313C28.4904 37.8354 28.7219 38.6368 29.21 39.2796L22.21 46.7996C21.6862 46.4592 21.0747 46.2786 20.45 46.2796C19.7824 46.28 19.1306 46.4821 18.58 46.8596L14 42.2296C14.4963 41.664 14.7838 40.9453 14.8144 40.1934C14.845 39.4415 14.6169 38.7019 14.1681 38.0978C13.7194 37.4937 13.0772 37.0617 12.3485 36.8738C11.6198 36.6859 10.8487 36.7536 10.1638 37.0654C9.47897 37.3772 8.92168 37.9144 8.58492 38.5873C8.24816 39.2603 8.15227 40.0283 8.31324 40.7634C8.47422 41.4985 8.88233 42.1562 9.46952 42.6268C10.0567 43.0975 10.7875 43.3526 11.54 43.3496C12.0637 43.3484 12.5789 43.2179 13.04 42.9696L17.78 47.7096C17.4342 48.2086 17.2328 48.7932 17.1978 49.3993C17.1628 50.0053 17.2957 50.6093 17.5818 51.1447C17.8679 51.6801 18.2962 52.1262 18.8195 52.4339C19.3427 52.7416 19.9408 52.8991 20.5477 52.8889C21.1547 52.8787 21.7471 52.7013 22.2597 52.3761C22.7724 52.051 23.1854 51.5908 23.4534 51.0461C23.7214 50.5014 23.8339 49.8933 23.7786 49.2888C23.7233 48.6842 23.5023 48.1067 23.14 47.6196L30.14 40.0996C30.6669 40.4413 31.282 40.622 31.91 40.6196C32.7525 40.5732 33.5452 40.2058 34.1252 39.593C34.7052 38.9801 35.0284 38.1684 35.0284 37.3246C35.0284 36.4808 34.7052 35.6691 34.1252 35.0563C33.5452 34.4434 32.7525 34.076 31.91 34.0296C31.4821 34.0319 31.0583 34.1132 30.66 34.2696L25.87 26.7996C26.486 26.2869 26.9604 25.6248 27.2478 24.8767C27.5352 24.1285 27.626 23.3191 27.5117 22.5259C27.3974 21.7326 27.0817 20.9818 26.5947 20.3453C26.1077 19.7087 25.4657 19.2075 24.73 18.8896L28.22 6.69961C28.33 6.69961 28.44 6.69961 28.55 6.69961C29.3719 6.71217 30.1697 6.4221 30.7917 5.88461C31.4136 5.34712 31.8162 4.59974 31.9228 3.78469C32.0295 2.96965 31.8328 2.14383 31.3701 1.46441C30.9074 0.78499 30.2111 0.299391 29.4136 0.100028C28.6162 -0.0993355 27.7733 0.00145376 27.0453 0.383215C26.3173 0.764975 25.7551 1.40106 25.4657 2.17041C25.1763 2.93976 25.1798 3.78868 25.4756 4.5556C25.7714 5.32252 26.3389 5.95391 27.07 6.32961L23.52 18.5296C23.279 18.486 23.0349 18.4626 22.79 18.4596C22.0433 18.4484 21.305 18.6176 20.6377 18.9527C19.9704 19.2879 19.3938 19.7792 18.957 20.3849C18.5202 20.9905 18.236 21.6927 18.1286 22.4317C18.0211 23.1707 18.0937 23.9247 18.34 24.6296L6 30.6096C5.69313 30.1811 5.28752 29.8329 4.81753 29.5944C4.34754 29.356 3.82701 29.2343 3.3 29.2396Z" fill="black"></path>
                    <circle cx="22.5" cy="23.5" r="5.5" fill="#001AFF"></circle>
                  </svg>