<svg width="37" height="41" viewBox="0 0 37 41" fill="none" xmlns="http://www.w3.org/2000/svg">
                    <path d="M24.9652 8.62695C25.6732 7.80811 26.0666 6.76392 26.0747 5.68146C26.084 4.92396 25.9071 4.17578 25.5596 3.50267C25.212 2.82956 24.7044 2.25215 24.0814 1.8212C23.4583 1.39024 22.739 1.11895 21.9865 1.03116C21.2341 0.943369 20.4716 1.04178 19.7661 1.31773C19.0606 1.59368 18.4337 2.03873 17.9405 2.61374C17.4473 3.18875 17.1029 3.87612 16.9376 4.61542C16.7723 5.35472 16.7912 6.1233 16.9926 6.8536C17.1939 7.5839 17.5716 8.25355 18.0924 8.80367L4.8279 24.8664C4.35191 24.5952 3.8146 24.4499 3.26679 24.4442C2.52054 24.4448 1.79697 24.7007 1.21623 25.1694C0.6355 25.638 0.232561 26.2912 0.0743383 27.0205C-0.0838841 27.7498 0.0121328 28.5112 0.346442 29.1784C0.680751 29.8456 1.23323 30.3783 1.91213 30.6881C2.59102 30.9979 3.35547 31.0662 4.07851 30.8815C4.80154 30.6969 5.43966 30.2704 5.88687 29.673C6.33407 29.0756 6.56346 28.3432 6.53692 27.5975C6.51039 26.8517 6.22953 26.1374 5.741 25.5733L18.8092 9.77569L14.2436 19.2602C13.9682 19.186 13.6845 19.1464 13.3993 19.1423C12.628 19.1393 11.8809 19.4115 11.2923 19.91C10.7037 20.4085 10.3123 21.1007 10.1884 21.862C10.0646 22.6233 10.2163 23.4038 10.6165 24.0632C11.0166 24.7226 11.6389 25.2176 12.3714 25.4593C13.1038 25.7009 13.8985 25.6733 14.6125 25.3815C15.3264 25.0896 15.9128 24.5526 16.2663 23.867C16.6197 23.1815 16.717 22.3923 16.5406 21.6414C16.3642 20.8905 15.9257 20.2272 15.304 19.7707L20.007 10.0211C20.4749 10.1822 20.9653 10.2683 21.4601 10.2764H21.6957L26.1336 34.4982C25.382 34.7878 24.7657 35.3477 24.4056 36.0682C24.0455 36.7887 23.9675 37.6178 24.1871 38.3928C24.4066 39.1678 24.9078 39.8328 25.5923 40.2574C26.2768 40.682 27.0952 40.8355 27.887 40.6879C28.6789 40.5402 29.387 40.1021 29.8725 39.4594C30.358 38.8166 30.5859 38.0157 30.5114 37.2137C30.4369 36.4116 30.0654 35.6664 29.4699 35.124C28.8743 34.5817 28.0976 34.2814 27.2922 34.2822L22.8543 10.031C23.3018 9.89792 23.7258 9.69585 24.111 9.43204L31.19 17.1885C30.7517 17.7701 30.5228 18.4828 30.5405 19.2109C30.5582 19.939 30.8214 20.6398 31.2874 21.1994C31.7534 21.7591 32.3949 22.1449 33.1078 22.2942C33.8206 22.4434 34.563 22.3474 35.2144 22.0217C35.8658 21.696 36.388 21.1597 36.6963 20.4999C37.0046 19.8401 37.0809 19.0954 36.9127 18.3868C36.7446 17.6782 36.3419 17.0471 35.7701 16.5961C35.1982 16.1452 34.4907 15.9006 33.7624 15.9023C33.1585 15.905 32.5672 16.0749 32.054 16.3932L24.9652 8.62695Z" fill="black"></path>
                    <circle cx="21.5" cy="5.5" r="5.5" fill="#001AFF"></circle>
                  </svg>